<?xml version="1.0" encoding="utf-8"?>
<!-- Generator: Adobe Illustrator 22.0.0, SVG Export Plug-In . SVG Version: 6.00 Build 0)  -->
<svg version="1.1" id="Capa_1" xmlns="http://www.w3.org/2000/svg" xmlns:xlink="http://www.w3.org/1999/xlink" x="0px" y="0px"
	 viewBox="0 0 71.3 21.7" style="enable-background:new 0 0 71.3 21.7;" xml:space="preserve">
<style type="text/css">
	.st0{fill:#0F0468;}
	.st1{fill:none;stroke:#000000;stroke-miterlimit:10;}
	.st2{fill:#008AFB;}
	.st3{fill:#FC0964;}
	.st4{fill:#FFCE00;}
	.st5{fill:#FFFFFF;}
	.st6{fill:#FB6947;}
	.st7{fill:#6729E4;}
	.st8{fill:#004BDA;}
	.st9{fill:url(#SVGID_1_);}
</style>
<g>
	<circle cx="-396.5" cy="419.5" r="20.5"/>
	<circle cx="-331.2" cy="419.5" r="20.5"/>
	<rect x="-414.2" y="456.4" width="35.3" height="105.1"/>
	<path d="M-875.4,456.4v5.6c-8.1-5.5-17.8-8.7-28.2-8.7c-29,0-52.5,24.9-52.5,55.6s23.5,55.6,52.5,55.6c10.4,0,20-3.2,28.2-8.7v6
		h35.3V535v-52.2v-26.4H-875.4z M-896.4,534.1c-14.3,0-25.9-11.6-25.9-25.9c0-14.3,11.6-25.9,25.9-25.9c8.6,0,16.2,4.2,21,10.7v30.4
		C-880.1,529.9-887.7,534.1-896.4,534.1z"/>
	<rect x="-348.9" y="456.4" width="35.3" height="105.1"/>
	<path d="M-1028.9,448.9c-8.3,0-16.1,1.7-23.3,4.8v-48.8h-0.1c-0.9-8.9-8.4-15.9-17.6-15.9c-9.2,0-16.7,7-17.6,15.9h-0.1v102.9l0,0
		c0.2,32.2,26.3,58.3,58.6,58.3c32.4,0,58.6-26.2,58.6-58.6S-996.6,448.9-1028.9,448.9z M-1028.9,535.6c-15.4,0-27.8-12.5-27.8-27.8
		c0-15.4,12.5-27.8,27.8-27.8s27.8,12.5,27.8,27.8C-1001.1,523.2-1013.6,535.6-1028.9,535.6z"/>
	<path d="M-607.9,456.4v5.6c-8.1-5.5-17.8-8.7-28.2-8.7c-29,0-52.5,24.9-52.5,55.6s23.5,55.6,52.5,55.6c10.4,0,20-3.2,28.2-8.7v52.5
		h0.1c0.7,9.2,8.3,16.4,17.6,16.4c9.3,0,16.9-7.2,17.6-16.4h0.1V535v-52.2v-26.4H-607.9z M-628.8,534.1c-14.3,0-25.9-11.6-25.9-25.9
		c0-14.3,11.6-25.9,25.9-25.9c8.6,0,16.2,4.2,21,10.7v30.4C-612.6,529.9-620.2,534.1-628.8,534.1z"/>
	<path d="M-475.9,456.4v65.5c-3,4.2-9.3,10.4-20.5,10.4c-16.7,0-18.5-16.9-18.5-16.9v-59.1h-35.3v67c1.1,11.9,9.6,34.7,35.3,39.9
		c25.7,5.2,39-9.6,39-9.6v7.8h35.3V456.4H-475.9z"/>
	<path d="M-779.8,561.8v-65.5c3-4.2,9.3-10.4,20.5-10.4c16.7,0,18.5,16.9,18.5,16.9v59.1h35.3v-67c-1.1-11.9-9.6-34.7-35.3-39.9
		c-25.7-5.2-39,9.6-39,9.6v-7.8h-35.3v105.1H-779.8z"/>
</g>
<g>
	<circle class="st0" cx="60.8" cy="4.1" r="1.7"/>
	<circle class="st0" cx="66.2" cy="4.1" r="1.7"/>
	<rect x="59.4" y="7.1" class="st0" width="2.9" height="8.6"/>
	<path class="st0" d="M21.4,7.1v0.5c-0.7-0.5-1.5-0.7-2.3-0.7c-2.4,0-4.3,2.1-4.3,4.6s1.9,4.6,4.3,4.6c0.9,0,1.6-0.3,2.3-0.7v0.5
		h2.9v-2.2V9.3V7.1H21.4z M19.7,13.5c-1.2,0-2.1-1-2.1-2.1s1-2.1,2.1-2.1c0.7,0,1.3,0.3,1.7,0.9v2.5C21,13.2,20.4,13.5,19.7,13.5z"
		/>
	<rect x="64.8" y="7.1" class="st0" width="2.9" height="8.6"/>
	<path class="st0" d="M8.8,6.5c-0.7,0-1.3,0.1-1.9,0.4v-4h0C6.8,2.2,6.2,1.6,5.4,1.6C4.7,1.6,4,2.2,4,2.9h0v8.5l0,0
		c0,2.7,2.2,4.8,4.8,4.8c2.7,0,4.8-2.2,4.8-4.8S11.4,6.5,8.8,6.5z M8.8,13.7c-1.3,0-2.3-1-2.3-2.3s1-2.3,2.3-2.3s2.3,1,2.3,2.3
		S10,13.7,8.8,13.7z"/>
	<path class="st0" d="M43.4,7.1v0.5c-0.7-0.5-1.5-0.7-2.3-0.7c-2.4,0-4.3,2.1-4.3,4.6s1.9,4.6,4.3,4.6c0.9,0,1.6-0.3,2.3-0.7v4.3h0
		c0.1,0.8,0.7,1.3,1.4,1.3c0.8,0,1.4-0.6,1.4-1.3h0v-6V9.3V7.1H43.4z M41.7,13.5c-1.2,0-2.1-1-2.1-2.1s1-2.1,2.1-2.1
		c0.7,0,1.3,0.3,1.7,0.9v2.5C43.1,13.2,42.4,13.5,41.7,13.5z"/>
	<path class="st0" d="M54.3,7.1v5.4c-0.2,0.3-0.8,0.9-1.7,0.9c-1.4,0-1.5-1.4-1.5-1.4V7.1h-2.9v5.5c0.1,1,0.8,2.9,2.9,3.3
		c2.1,0.4,3.2-0.8,3.2-0.8v0.6h2.9V7.1H54.3z"/>
	<path class="st0" d="M29.3,15.8v-5.4c0.2-0.3,0.8-0.9,1.7-0.9c1.4,0,1.5,1.4,1.5,1.4v4.9h2.9v-5.5c-0.1-1-0.8-2.9-2.9-3.3
		c-2.1-0.4-3.2,0.8-3.2,0.8V7.2h-2.9v8.6H29.3z"/>
</g>
<circle cx="-1112.9" cy="-299.1" r="26.7"/>
<circle class="st1" cx="-449.3" cy="-102.5" r="41.3"/>
<ellipse class="st1" cx="-437.8" cy="-110.8" rx="19.5" ry="18.7"/>
<path d="M-1165.2-202.1c-22.8,0-41.3,18.5-41.3,41.3s18.5,41.3,41.3,41.3c22.8,0,41.3-18.5,41.3-41.3S-1142.3-202.1-1165.2-202.1z
	 M-1153.7-150.3c-10.8,0-19.5-8.4-19.5-18.7c0-10.4,8.7-18.7,19.5-18.7c10.8,0,19.5,8.4,19.5,18.7
	C-1134.2-158.7-1143-150.3-1153.7-150.3z"/>
<polygon points="-769.9,-85.2 -803.9,-84.8 -803.9,-186.4 -769.9,-186.4 "/>
<polygon points="-712.8,-85.2 -746.7,-84.8 -746.7,-186.4 -712.8,-186.4 "/>
<polygon points="-641,-85 -674.9,-84.8 -674.9,-137 -641,-137 "/>
<g>
	<circle cx="-343.5" cy="-383.7" r="19.7"/>
	<circle cx="-280.7" cy="-383.7" r="19.7"/>
	<rect x="-360.4" y="-348.2" width="34" height="101"/>
	<path d="M-803.9-348.2v5.4c-7.8-5.3-17.1-8.3-27.1-8.3c-27.9,0-50.5,23.9-50.5,53.5c0,29.5,22.6,53.5,50.5,53.5
		c10,0,19.2-3.1,27.1-8.3v5.7h34v-25.8v-50.2v-25.4H-803.9z M-824-273.5c-13.8,0-24.9-11.2-24.9-24.9c0-13.8,11.2-24.9,24.9-24.9
		c8.3,0,15.6,4.1,20.2,10.3v29.2C-808.4-277.5-815.7-273.5-824-273.5z"/>
	<rect x="-297.7" y="-348.2" width="34" height="101"/>
	<path d="M-951.5-355.4c-8,0-15.5,1.7-22.4,4.6v-46.9h-0.1c-0.8-8.6-8.1-15.3-16.9-15.3c-8.8,0-16.1,6.7-16.9,15.3h-0.1v98.9l0,0
		c0.2,31,25.3,56.1,56.3,56.1c31.1,0,56.3-25.2,56.3-56.3S-920.4-355.4-951.5-355.4z M-951.5-272c-14.8,0-26.7-12-26.7-26.7
		s12-26.7,26.7-26.7s26.7,12,26.7,26.7S-936.7-272-951.5-272z"/>
	<path d="M-546.7-348.2v5.4c-7.8-5.3-17.1-8.3-27.1-8.3c-27.9,0-50.5,23.9-50.5,53.5c0,29.5,22.6,53.5,50.5,53.5
		c10,0,19.2-3.1,27.1-8.3v50.5h0.1c0.6,8.8,8,15.7,16.9,15.7c9,0,16.3-6.9,16.9-15.7h0.1v-70.5v-50.2v-25.4H-546.7z M-566.8-273.5
		c-13.8,0-24.9-11.2-24.9-24.9c0-13.8,11.2-24.9,24.9-24.9c8.3,0,15.6,4.1,20.2,10.3v29.2C-551.2-277.5-558.5-273.5-566.8-273.5z"/>
	<path d="M-419.8-348.2v63c-2.9,4-9,10-19.7,10c-16.1,0-17.8-16.2-17.8-16.2v-56.8h-34v64.4c1,11.4,9.2,33.4,33.9,38.4
		c24.7,5,37.5-9.2,37.5-9.2v7.5h34v-101H-419.8z"/>
	<path d="M-712-246.9v-63c2.9-4,9-10,19.7-10c16.1,0,17.8,16.2,17.8,16.2v56.8h34v-64.4c-1-11.4-9.2-33.4-33.9-38.4
		c-24.7-5-37.5,9.2-37.5,9.2v-7.5h-34v101H-712z"/>
</g>
<circle class="st2" cx="-505.5" cy="76.8" r="23.8"/>
<circle class="st3" cx="-399.4" cy="76.8" r="23.8"/>
<circle class="st4" cx="-290.2" cy="76.8" r="23.8"/>
<circle class="st5" cx="-194.9" cy="76.8" r="23.8"/>
<rect x="-474.1" y="128.3" class="st6" width="45.2" height="45.2"/>
<rect x="-405.8" y="133.8" class="st7" width="45.2" height="45.2"/>
<rect x="-550" y="133.8" class="st8" width="45.2" height="45.2"/>
<linearGradient id="SVGID_1_" gradientUnits="userSpaceOnUse" x1="-284.5929" y1="158.7335" x2="-194.8607" y2="158.7335">
	<stop  offset="0" style="stop-color:#004BDA"/>
	<stop  offset="1" style="stop-color:#6729E4"/>
</linearGradient>
<rect x="-284.6" y="128.3" class="st9" width="89.7" height="60.9"/>
<g>
	<path d="M-1229.2,95.1c-31.7,0-57.4,25.7-57.4,57.4s25.7,57.4,57.4,57.4s57.4-25.7,57.4-57.4S-1197.5,95.1-1229.2,95.1z
		 M-1229.2,179.8c-15,0-27.2-12.2-27.2-27.2c0-15,12.2-27.2,27.2-27.2s27.2,12.2,27.2,27.2C-1202,167.6-1214.2,179.8-1229.2,179.8z"
		/>
	<path d="M-1144,95.1c-31.7,0-57.4,25.7-57.4,57.4s25.7,57.4,57.4,57.4s57.4-25.7,57.4-57.4S-1112.3,95.1-1144,95.1z M-1144,179.8
		c-15,0-27.2-12.2-27.2-27.2c0-15,12.2-27.2,27.2-27.2s27.2,12.2,27.2,27.2C-1116.8,167.6-1128.9,179.8-1144,179.8z"/>
	<path d="M-1086.6,244.9v-24h0l-0.1-45.5c-6.6,13.1-18,28.1-36.9,35.3v10.2v2.2v24.8l0.1,0c0.7,9.6,8.7,17.1,18.5,17.1
		c10.3,0,18.6-8.3,18.6-18.6C-1086.6,245.9-1086.6,245.4-1086.6,244.9z"/>
	<path d="M-1286.6,59.7v24h0l0.1,45.5c6.6-13.1,18-28.1,36.9-35.3V83.7v-2.2V56.8l-0.1,0c-0.7-9.6-8.7-17.1-18.5-17.1
		c-10.3,0-18.6,8.3-18.6,18.6C-1286.7,58.7-1286.6,59.2-1286.6,59.7z"/>
</g>
</svg>
