<?xml version="1.0" encoding="utf-8"?>
<!-- Generator: Adobe Illustrator 22.0.0, SVG Export Plug-In . SVG Version: 6.00 Build 0)  -->
<svg version="1.1" id="Capa_1" xmlns="http://www.w3.org/2000/svg" xmlns:xlink="http://www.w3.org/1999/xlink" x="0px" y="0px"
	 viewBox="0 0 48 51" style="enable-background:new 0 0 48 51;" xml:space="preserve">
<style type="text/css">
	.st0{fill:#FFFFFF;}
</style>
<g>
	<path class="st0" d="M46,5.4H32.3l-0.7-3.9h-4l0.6,3.9h-8.6l0.8-3.9h-4l-0.6,3.9H2c-1.1,0-2,0.9-2,2v30c0,1.1,0.9,2,2,2h8L8.4,49.5
		h4l0.9-5.6h21.4l0.9,5.6h4L38,39.4h8c1.1,0,2-0.9,2-2v-30C48,6.3,47.1,5.4,46,5.4z M13.6,41.8l0.4-2.4h20l0.4,2.4H13.6z M44,35.4H4
		v-26h40V35.4z"/>
	<path class="st0" d="M8.4,32.6h31.3c0.6,0,1-0.4,1-1s-0.4-1-1-1H9.4V13.2c0-0.6-0.4-1-1-1s-1,0.4-1,1v18.4
		C7.4,32.1,7.8,32.6,8.4,32.6z"/>
	<path class="st0" d="M13.5,27.2l6.2-6.2l4.7,4.7c0.4,0.4,1,0.4,1.4,0l9.3-9.3c0.4-0.4,0.4-1,0-1.4s-1-0.4-1.4,0l-8.6,8.6l-4.7-4.7
		c-0.4-0.4-1-0.4-1.4,0l-6.9,6.9c-0.4,0.4-0.4,1,0,1.4C12.3,27.4,12.9,27.7,13.5,27.2z"/>
</g>
</svg>
