<?xml version="1.0" encoding="utf-8"?>
<!-- Generator: Adobe Illustrator 22.0.0, SVG Export Plug-In . SVG Version: 6.00 Build 0)  -->
<svg version="1.1" id="Capa_1" xmlns="http://www.w3.org/2000/svg" xmlns:xlink="http://www.w3.org/1999/xlink" x="0px" y="0px"
	 viewBox="0 0 64 62.1" style="enable-background:new 0 0 64 62.1;" xml:space="preserve">
<style type="text/css">
	.st0{fill:#FFFFFF;}
</style>
<title>finance 3</title>
<path class="st0" d="M6,38.5h3v12l6-6v-27c0-3.3,2.7-6,6-6h26v-4c0-2.2-1.8-4-4-4H6c-2.2,0-4,1.8-4,4v27C2,36.7,3.8,38.5,6,38.5z"/>
<path class="st0" d="M58,13.5H21c-2.2,0-4,1.8-4,4v27c0,2.2,1.8,4,4,4h22l12,12v-12h3c2.2,0,4-1.8,4-4v-27
	C62,15.3,60.2,13.5,58,13.5z M39.5,45.4c-8,0-14.4-6.5-14.4-14.5s6.5-14.4,14.5-14.4C47.6,16.5,54,23,54,31
	C54,39,47.5,45.4,39.5,45.4z"/>
<path class="st0" d="M39.5,18.5c-6.9,0-12.4,5.6-12.4,12.5c0,6.9,5.6,12.4,12.5,12.4C46.4,43.4,52,37.9,52,31
	C52,24.1,46.4,18.5,39.5,18.5C39.5,18.5,39.5,18.5,39.5,18.5z M46.2,35.8c0,2.3-1.9,4.2-4.2,4.2h-0.5v1.1h-4V40H34v-4h8
	c0.1,0,0.2-0.1,0.2-0.2v-2.7c0-0.1-0.1-0.2-0.2-0.2h-5c-2.3,0-4.2-1.9-4.2-4.2v-2.7c0-2.3,1.9-4.2,4.2-4.2h0.5v-1.1h4v1.1H45v4h-8
	c-0.1,0-0.2,0.1-0.2,0.2v2.7c0,0.1,0.1,0.2,0.2,0.2c0,0,0,0,0,0h5c2.3,0,4.2,1.9,4.2,4.2L46.2,35.8z"/>
</svg>
