<?xml version="1.0" encoding="utf-8"?>
<!-- Generator: Adobe Illustrator 22.0.0, SVG Export Plug-In . SVG Version: 6.00 Build 0)  -->
<svg version="1.1" id="Capa_1" xmlns="http://www.w3.org/2000/svg" xmlns:xlink="http://www.w3.org/1999/xlink" x="0px" y="0px"
	 viewBox="0 0 48.3 48" style="enable-background:new 0 0 48.3 48;" xml:space="preserve">
<style type="text/css">
	.st0{fill:#FFFFFF;}
</style>
<g>
	<path class="st0" d="M45.1,6c0-1.7-1.3-3-3-3H6.3c-1.7,0-3,1.3-3,3v25.1H45V6H45.1z M42.1,28.1H6.3V6H42v22.1H42.1z"/>
	<path class="st0" d="M48,41l-3-7.9H3.3l-3,7.9c-0.7,2,0.7,4,2.8,4h42C47.3,45,48.7,42.9,48,41z M19,41.7l1-3.8h8.4l1,3.8H19z"/>
	<path class="st0" d="M11.7,24.8c1.4,0,2.6-1.2,2.6-2.6c0-0.4-0.1-0.8-0.3-1.1l5.4-5.4c0.4,0.2,0.8,0.3,1.3,0.3s1-0.1,1.4-0.4
		l3.8,3.8c-0.1,0.3-0.2,0.6-0.2,0.9c0,1.4,1.2,2.6,2.6,2.6s2.6-1.2,2.6-2.6c0-0.4-0.1-0.8-0.3-1.1l5-5c0.3,0.2,0.7,0.2,1.1,0.2
		c1.4,0,2.6-1.2,2.6-2.6s-1.2-2.6-2.6-2.6c-1.4,0-2.6,1.2-2.6,2.6c0,0.4,0.1,0.8,0.2,1.1l-5,5c-0.3-0.1-0.7-0.2-1.1-0.2
		S27.3,17.8,27,18l-3.9-3.9c0.1-0.2,0.1-0.5,0.1-0.8c0-1.4-1.2-2.6-2.6-2.6S18,11.9,18,13.3c0,0.3,0.1,0.6,0.2,0.9l-5.5,5.5
		c-0.3-0.1-0.7-0.2-1-0.2c-1.4,0-2.6,1.2-2.6,2.6C9.2,23.6,10.3,24.8,11.7,24.8z"/>
</g>
</svg>
