<?xml version="1.0" encoding="utf-8"?>
<!-- Generator: Adobe Illustrator 22.0.0, SVG Export Plug-In . SVG Version: 6.00 Build 0)  -->
<svg version="1.1" id="Capa_1" xmlns="http://www.w3.org/2000/svg" xmlns:xlink="http://www.w3.org/1999/xlink" x="0px" y="0px"
	 viewBox="0 0 100 86.4" style="enable-background:new 0 0 100 86.4;" xml:space="preserve">
<style type="text/css">
	.st0{fill:#FFFFFF;}
</style>
<g id="Capa_2_1_">
</g>
<g id="Capa_1_1_">
	<g>
		<path class="st0" d="M31.5,43c0.8-0.1,1.5-0.6,2-1.2L45,26.3l3.2,2.4c0.7,0.5,1.6,0.6,2.3,0.2c0.8-0.4,1.3-1.1,1.3-2l0.5-12.5
			c0-0.8-0.3-1.5-0.9-1.9c-0.6-0.4-1.4-0.6-2.1-0.3l-11.8,4.1c-0.8,0.3-1.4,1-1.5,1.8s0.2,1.7,0.9,2.2l3.2,2.4l-9.6,12.9l-9.6-7.1
			c-0.7-0.5-1.5-0.7-2.3-0.6s-1.5,0.6-2,1.2l-13.4,18c-1,1.4-0.7,3.3,0.6,4.3C4.3,51.8,5,52,5.6,52c1,0,1.9-0.5,2.5-1.2l11.5-15.5
			l9.6,7.1C29.9,42.9,30.7,43.1,31.5,43z"/>
		<path class="st0" d="M13.2,58H4.6c-1.2,0-2.1,1-2.1,2.1v12c0,1.2,1,2.1,2.1,2.1h8.6c1.2,0,2.1-1,2.1-2.1v-12
			C15.3,58.9,14.4,58,13.2,58z"/>
		<path class="st0" d="M32.4,49.5h-8.6c-1.2,0-2.1,1-2.1,2.1v20.6c0,1.2,1,2.1,2.1,2.1h8.6c1.2,0,2.1-1,2.1-2.1V51.6
			C34.5,50.4,33.6,49.5,32.4,49.5z"/>
		<path class="st0" d="M51.6,40.9H43c-1.2,0-2.1,1-2.1,2.1v29.2c0,1.2,1,2.1,2.1,2.1h8.6c1.2,0,2.1-1,2.1-2.1V43.1
			C53.8,41.9,52.8,40.9,51.6,40.9z"/>
		<path class="st0" d="M97.2,50.2c-0.2-0.9-0.4-1.8-0.7-2.6c-0.3-0.8-0.7-1.5-1.2-2.2s-1-1.3-1.5-1.8s-1.2-1-2-1.5s-1.5-0.9-2.2-1.3
			c-0.7-0.4-1.6-0.7-2.6-1.1c-1-0.4-1.9-0.7-2.8-1s-1.9-0.6-3.1-1c-2.6-0.8-4.5-1.7-5.6-2.4c-1-0.7-1.5-1.5-1.5-2.6
			c0-1.1,0.4-1.9,1.2-2.5c0.9-0.6,2.2-0.9,3.9-0.9c3.2,0,6.5,1.1,9.9,3.3c0.8,0.5,1.8,0.3,2.3-0.4l4.3-5.4c0.3-0.4,0.4-0.8,0.4-1.3
			c-0.1-0.5-0.3-0.9-0.7-1.2c-1.4-1.1-3.1-2-4.9-2.8c-1.9-0.9-3.9-1.6-5.9-2.1l-0.3-0.1v-5.6c0-1-0.8-1.7-1.7-1.7h-5.3
			c-1,0-1.7,0.8-1.7,1.7v5.2L75.1,19c-3.9,0.6-7,2.1-9.2,4.6c-2.5,2.6-3.7,5.9-3.7,9.8c0,0.9,0.1,1.8,0.2,2.6
			c0.1,0.8,0.4,1.6,0.6,2.3c0.3,0.7,0.6,1.4,1,2s0.8,1.2,1.4,1.8c0.5,0.5,1.1,1,1.6,1.4c0.6,0.5,1.2,0.9,1.9,1.3
			c0.7,0.4,1.4,0.7,2,1c0.7,0.3,1.5,0.6,2.3,0.9c0.8,0.3,1.6,0.6,2.3,0.8c0.7,0.2,1.5,0.5,2.4,0.8c1,0.3,1.9,0.6,2.6,0.8
			c0.7,0.3,1.4,0.6,2,0.9c0.6,0.3,1.1,0.6,1.5,0.8c0.3,0.3,0.7,0.6,0.9,0.9c0.2,0.3,0.4,0.6,0.5,1s0.2,0.8,0.2,1.2
			c0,1.2-0.4,2.1-1.4,2.8c-2,1.5-6,1.4-10.2-0.3c-1.9-0.8-3.6-1.9-5.3-3.3c-0.3-0.3-0.8-0.4-1.2-0.4h-0.1c-0.5,0-0.9,0.3-1.2,0.6
			l-4.4,5.4c-0.6,0.7-0.5,1.8,0.1,2.4c3.7,3.5,8.1,5.7,13.1,6.6l0.3,0.1v4.7c0,1,0.8,1.7,1.7,1.7h5.3c1,0,1.7-0.8,1.7-1.7v-4.7
			l0.3-0.1c3.8-0.7,6.9-2.3,9.2-4.7c2.5-2.6,3.7-5.9,3.7-9.9C97.5,52.2,97.4,51.2,97.2,50.2z"/>
	</g>
</g>
</svg>
